<mxfile host="app.diagrams.net" modified="2023-04-11T17:57:51.718Z" agent="Mozilla/5.0 (X11; Linux x86_64) AppleWebKit/537.36 (KHTML, like Gecko) Chrome/112.0.0.0 Safari/537.36" etag="Pqg3g2kITg0rDF3g12i5" version="21.1.6" type="device" pages="2">
  <diagram id="tJ7p3LnjiJhv3BW7GDjU" name="Net_60">
    <mxGraphModel dx="700" dy="377" grid="1" gridSize="10" guides="1" tooltips="1" connect="1" arrows="1" fold="1" page="1" pageScale="1" pageWidth="850" pageHeight="1100" math="0" shadow="0">
      <root>
        <mxCell id="0" />
        <mxCell id="1" parent="0" />
        <mxCell id="tdk-HrJxNwO2N6UlPz3r-4" style="edgeStyle=orthogonalEdgeStyle;rounded=0;orthogonalLoop=1;jettySize=auto;html=1;" edge="1" parent="1" source="tdk-HrJxNwO2N6UlPz3r-1" target="tdk-HrJxNwO2N6UlPz3r-2">
          <mxGeometry relative="1" as="geometry" />
        </mxCell>
        <mxCell id="tdk-HrJxNwO2N6UlPz3r-1" value="&lt;font style=&quot;font-size: 16px;&quot;&gt;ConvX (in)&lt;br&gt;&lt;/font&gt;" style="rounded=1;whiteSpace=wrap;html=1;" vertex="1" parent="1">
          <mxGeometry x="40" y="40" width="120" height="40" as="geometry" />
        </mxCell>
        <mxCell id="tdk-HrJxNwO2N6UlPz3r-5" style="edgeStyle=orthogonalEdgeStyle;rounded=0;orthogonalLoop=1;jettySize=auto;html=1;" edge="1" parent="1" source="tdk-HrJxNwO2N6UlPz3r-2" target="tdk-HrJxNwO2N6UlPz3r-3">
          <mxGeometry relative="1" as="geometry" />
        </mxCell>
        <mxCell id="tdk-HrJxNwO2N6UlPz3r-2" value="&lt;font style=&quot;font-size: 16px;&quot;&gt;ConvX (4)&lt;br&gt;&lt;/font&gt;" style="rounded=1;whiteSpace=wrap;html=1;" vertex="1" parent="1">
          <mxGeometry x="40" y="100" width="120" height="40" as="geometry" />
        </mxCell>
        <mxCell id="tdk-HrJxNwO2N6UlPz3r-12" style="edgeStyle=orthogonalEdgeStyle;rounded=0;orthogonalLoop=1;jettySize=auto;html=1;" edge="1" parent="1" source="tdk-HrJxNwO2N6UlPz3r-3" target="tdk-HrJxNwO2N6UlPz3r-7">
          <mxGeometry relative="1" as="geometry" />
        </mxCell>
        <mxCell id="tdk-HrJxNwO2N6UlPz3r-3" value="&lt;font style=&quot;font-size: 16px;&quot;&gt;Reduce&lt;br&gt;&lt;/font&gt;" style="rounded=1;whiteSpace=wrap;html=1;" vertex="1" parent="1">
          <mxGeometry x="40" y="160" width="120" height="40" as="geometry" />
        </mxCell>
        <mxCell id="tdk-HrJxNwO2N6UlPz3r-6" style="edgeStyle=orthogonalEdgeStyle;rounded=0;orthogonalLoop=1;jettySize=auto;html=1;" edge="1" parent="1" source="tdk-HrJxNwO2N6UlPz3r-7" target="tdk-HrJxNwO2N6UlPz3r-8">
          <mxGeometry relative="1" as="geometry" />
        </mxCell>
        <mxCell id="tdk-HrJxNwO2N6UlPz3r-7" value="&lt;font style=&quot;font-size: 16px;&quot;&gt;ConvX (8)&lt;br&gt;&lt;/font&gt;" style="rounded=1;whiteSpace=wrap;html=1;" vertex="1" parent="1">
          <mxGeometry x="40" y="220" width="120" height="40" as="geometry" />
        </mxCell>
        <mxCell id="tdk-HrJxNwO2N6UlPz3r-29" style="edgeStyle=orthogonalEdgeStyle;rounded=0;orthogonalLoop=1;jettySize=auto;html=1;exitX=1;exitY=0.5;exitDx=0;exitDy=0;" edge="1" parent="1" source="tdk-HrJxNwO2N6UlPz3r-8" target="tdk-HrJxNwO2N6UlPz3r-10">
          <mxGeometry relative="1" as="geometry">
            <Array as="points">
              <mxPoint x="180" y="300" />
              <mxPoint x="180" y="30" />
              <mxPoint x="260" y="30" />
            </Array>
          </mxGeometry>
        </mxCell>
        <mxCell id="tdk-HrJxNwO2N6UlPz3r-8" value="&lt;font style=&quot;font-size: 16px;&quot;&gt;Reduce&lt;br&gt;&lt;/font&gt;" style="rounded=1;whiteSpace=wrap;html=1;" vertex="1" parent="1">
          <mxGeometry x="40" y="280" width="120" height="40" as="geometry" />
        </mxCell>
        <mxCell id="tdk-HrJxNwO2N6UlPz3r-9" style="edgeStyle=orthogonalEdgeStyle;rounded=0;orthogonalLoop=1;jettySize=auto;html=1;" edge="1" parent="1" source="tdk-HrJxNwO2N6UlPz3r-10" target="tdk-HrJxNwO2N6UlPz3r-11">
          <mxGeometry relative="1" as="geometry" />
        </mxCell>
        <mxCell id="tdk-HrJxNwO2N6UlPz3r-10" value="&lt;font style=&quot;font-size: 16px;&quot;&gt;ConvX (16)&lt;br&gt;&lt;/font&gt;" style="rounded=1;whiteSpace=wrap;html=1;" vertex="1" parent="1">
          <mxGeometry x="200" y="40" width="120" height="40" as="geometry" />
        </mxCell>
        <mxCell id="tdk-HrJxNwO2N6UlPz3r-30" style="edgeStyle=orthogonalEdgeStyle;rounded=0;orthogonalLoop=1;jettySize=auto;html=1;exitX=0.5;exitY=1;exitDx=0;exitDy=0;" edge="1" parent="1" source="tdk-HrJxNwO2N6UlPz3r-11" target="tdk-HrJxNwO2N6UlPz3r-20">
          <mxGeometry relative="1" as="geometry">
            <Array as="points">
              <mxPoint x="260" y="160" />
            </Array>
          </mxGeometry>
        </mxCell>
        <mxCell id="tdk-HrJxNwO2N6UlPz3r-11" value="&lt;font style=&quot;font-size: 16px;&quot;&gt;Reduce&lt;br&gt;&lt;/font&gt;" style="rounded=1;whiteSpace=wrap;html=1;" vertex="1" parent="1">
          <mxGeometry x="200" y="100" width="120" height="40" as="geometry" />
        </mxCell>
        <mxCell id="tdk-HrJxNwO2N6UlPz3r-19" style="edgeStyle=orthogonalEdgeStyle;rounded=0;orthogonalLoop=1;jettySize=auto;html=1;" edge="1" parent="1" source="tdk-HrJxNwO2N6UlPz3r-20" target="tdk-HrJxNwO2N6UlPz3r-21">
          <mxGeometry relative="1" as="geometry" />
        </mxCell>
        <mxCell id="tdk-HrJxNwO2N6UlPz3r-20" value="&lt;font style=&quot;font-size: 16px;&quot;&gt;ConvX(32)&lt;br&gt;&lt;/font&gt;" style="rounded=1;whiteSpace=wrap;html=1;" vertex="1" parent="1">
          <mxGeometry x="200" y="160" width="120" height="40" as="geometry" />
        </mxCell>
        <mxCell id="tdk-HrJxNwO2N6UlPz3r-31" style="edgeStyle=orthogonalEdgeStyle;rounded=0;orthogonalLoop=1;jettySize=auto;html=1;" edge="1" parent="1" source="tdk-HrJxNwO2N6UlPz3r-21" target="tdk-HrJxNwO2N6UlPz3r-23">
          <mxGeometry relative="1" as="geometry" />
        </mxCell>
        <mxCell id="tdk-HrJxNwO2N6UlPz3r-21" value="&lt;font style=&quot;font-size: 16px;&quot;&gt;Reduce&lt;br&gt;&lt;/font&gt;" style="rounded=1;whiteSpace=wrap;html=1;" vertex="1" parent="1">
          <mxGeometry x="200" y="220" width="120" height="40" as="geometry" />
        </mxCell>
        <mxCell id="tdk-HrJxNwO2N6UlPz3r-22" style="edgeStyle=orthogonalEdgeStyle;rounded=0;orthogonalLoop=1;jettySize=auto;html=1;" edge="1" parent="1" source="tdk-HrJxNwO2N6UlPz3r-23" target="tdk-HrJxNwO2N6UlPz3r-24">
          <mxGeometry relative="1" as="geometry">
            <Array as="points">
              <mxPoint x="340" y="300" />
              <mxPoint x="340" y="30" />
              <mxPoint x="420" y="30" />
            </Array>
          </mxGeometry>
        </mxCell>
        <mxCell id="tdk-HrJxNwO2N6UlPz3r-23" value="&lt;font style=&quot;font-size: 16px;&quot;&gt;ConvX (16)&lt;br&gt;&lt;/font&gt;" style="rounded=1;whiteSpace=wrap;html=1;" vertex="1" parent="1">
          <mxGeometry x="200" y="280" width="120" height="40" as="geometry" />
        </mxCell>
        <mxCell id="tdk-HrJxNwO2N6UlPz3r-33" style="edgeStyle=orthogonalEdgeStyle;rounded=0;orthogonalLoop=1;jettySize=auto;html=1;" edge="1" parent="1" source="tdk-HrJxNwO2N6UlPz3r-24" target="tdk-HrJxNwO2N6UlPz3r-25">
          <mxGeometry relative="1" as="geometry" />
        </mxCell>
        <mxCell id="tdk-HrJxNwO2N6UlPz3r-24" value="&lt;font style=&quot;font-size: 16px;&quot;&gt;Reduce&lt;br&gt;&lt;/font&gt;" style="rounded=1;whiteSpace=wrap;html=1;" vertex="1" parent="1">
          <mxGeometry x="360" y="40" width="120" height="40" as="geometry" />
        </mxCell>
        <mxCell id="tdk-HrJxNwO2N6UlPz3r-35" style="edgeStyle=orthogonalEdgeStyle;rounded=0;orthogonalLoop=1;jettySize=auto;html=1;" edge="1" parent="1" source="tdk-HrJxNwO2N6UlPz3r-25" target="tdk-HrJxNwO2N6UlPz3r-26">
          <mxGeometry relative="1" as="geometry" />
        </mxCell>
        <mxCell id="tdk-HrJxNwO2N6UlPz3r-25" value="&lt;font style=&quot;font-size: 16px;&quot;&gt;ConvX (8)&lt;br&gt;&lt;/font&gt;" style="rounded=1;whiteSpace=wrap;html=1;" vertex="1" parent="1">
          <mxGeometry x="360" y="100" width="120" height="40" as="geometry" />
        </mxCell>
        <mxCell id="tdk-HrJxNwO2N6UlPz3r-37" style="edgeStyle=orthogonalEdgeStyle;rounded=0;orthogonalLoop=1;jettySize=auto;html=1;" edge="1" parent="1" source="tdk-HrJxNwO2N6UlPz3r-26" target="tdk-HrJxNwO2N6UlPz3r-27">
          <mxGeometry relative="1" as="geometry" />
        </mxCell>
        <mxCell id="tdk-HrJxNwO2N6UlPz3r-26" value="&lt;font style=&quot;font-size: 16px;&quot;&gt;ConvX (4)&lt;br&gt;&lt;/font&gt;" style="rounded=1;whiteSpace=wrap;html=1;" vertex="1" parent="1">
          <mxGeometry x="360" y="160" width="120" height="40" as="geometry" />
        </mxCell>
        <mxCell id="tdk-HrJxNwO2N6UlPz3r-38" style="edgeStyle=orthogonalEdgeStyle;rounded=0;orthogonalLoop=1;jettySize=auto;html=1;" edge="1" parent="1" source="tdk-HrJxNwO2N6UlPz3r-27" target="tdk-HrJxNwO2N6UlPz3r-28">
          <mxGeometry relative="1" as="geometry" />
        </mxCell>
        <mxCell id="tdk-HrJxNwO2N6UlPz3r-27" value="&lt;font style=&quot;font-size: 16px;&quot;&gt;Conv1D (2)&lt;br&gt;&lt;/font&gt;" style="rounded=1;whiteSpace=wrap;html=1;" vertex="1" parent="1">
          <mxGeometry x="360" y="220" width="120" height="40" as="geometry" />
        </mxCell>
        <mxCell id="tdk-HrJxNwO2N6UlPz3r-28" value="&lt;font style=&quot;font-size: 16px;&quot;&gt;Softmax&lt;br&gt;&lt;/font&gt;" style="rounded=1;whiteSpace=wrap;html=1;" vertex="1" parent="1">
          <mxGeometry x="360" y="280" width="120" height="40" as="geometry" />
        </mxCell>
      </root>
    </mxGraphModel>
  </diagram>
  <diagram name="ConvX" id="TAikiOPM3uduzQ_LN7-B">
    <mxGraphModel dx="819" dy="442" grid="1" gridSize="10" guides="1" tooltips="1" connect="1" arrows="1" fold="1" page="1" pageScale="1" pageWidth="850" pageHeight="1100" math="0" shadow="0">
      <root>
        <mxCell id="0" />
        <mxCell id="1" parent="0" />
        <mxCell id="jqdjMSUEEWet36WCWsnp-6" value="" style="edgeStyle=orthogonalEdgeStyle;rounded=0;orthogonalLoop=1;jettySize=auto;html=1;" edge="1" parent="1" source="jqdjMSUEEWet36WCWsnp-1" target="jqdjMSUEEWet36WCWsnp-4">
          <mxGeometry relative="1" as="geometry" />
        </mxCell>
        <mxCell id="jqdjMSUEEWet36WCWsnp-1" value="&lt;font style=&quot;font-size: 16px;&quot;&gt;Covn1D&lt;/font&gt;" style="rounded=1;whiteSpace=wrap;html=1;" vertex="1" parent="1">
          <mxGeometry x="40" y="40" width="120" height="40" as="geometry" />
        </mxCell>
        <mxCell id="jqdjMSUEEWet36WCWsnp-7" style="edgeStyle=orthogonalEdgeStyle;rounded=0;orthogonalLoop=1;jettySize=auto;html=1;exitX=0.5;exitY=1;exitDx=0;exitDy=0;" edge="1" parent="1" source="jqdjMSUEEWet36WCWsnp-4" target="jqdjMSUEEWet36WCWsnp-5">
          <mxGeometry relative="1" as="geometry" />
        </mxCell>
        <mxCell id="jqdjMSUEEWet36WCWsnp-4" value="&lt;font style=&quot;font-size: 16px;&quot;&gt;BatchNorm&lt;br&gt;&lt;/font&gt;" style="rounded=1;whiteSpace=wrap;html=1;" vertex="1" parent="1">
          <mxGeometry x="40" y="120" width="120" height="40" as="geometry" />
        </mxCell>
        <mxCell id="jqdjMSUEEWet36WCWsnp-5" value="&lt;font style=&quot;font-size: 16px;&quot;&gt;ReLU&lt;br&gt;&lt;/font&gt;" style="rounded=1;whiteSpace=wrap;html=1;" vertex="1" parent="1">
          <mxGeometry x="40" y="200" width="120" height="40" as="geometry" />
        </mxCell>
      </root>
    </mxGraphModel>
  </diagram>
</mxfile>
